# xmcd
#
# Track frame offsets: 
#        150
#        10230
#        21897
#        34647
#        46460
#        56992
#        71237
#        82832
#        93342
#        105482
#        117212
#        130320
#        142855
#        154717
#        168290
#        179442
#        197377
#        209415
#        221787
#        234747
#
# Disc length: 3306 seconds
#
# Revision: 1
# Processed by: cddbd v1.5.1PL2 Copyright (c) Steve Scherf et al.
# Submitted via: ExactAudioCopy v0.95a3
#
DISCID=140ce814
DTITLE=Various Artist - Decca Country Classics 1934-1973 - Disc 3
DYEAR=1994
DGENRE=Country
TTITLE0=The Wilburn Brothers - Trouble's Back In Town
TTITLE1=Jimmy Martin - Tennessee
TTITLE2=Bill Anderson - Still
TTITLE3=Patsy Cline - Sweet Dreams
TTITLE4=Warner Mack - The Bridge Washed Out
TTITLE5=Johnny Wright - Hello Vietnam
TTITLE6=Bill Phillips - Put It Off Until Tomorrow
TTITLE7=Jan Howard - Evil On Your Mind
TTITLE8=Wilma Burgess - Misty Blue
TTITLE9=Jack Greene - There Goes My Everything
TTITLE10=Claude Gray - I Never Had The One I Wanted
TTITLE11=Jimmy Newman - Louisiana Saturday Night
TTITLE12=Osborne Brothers - Rocky Top
TTITLE13=Loretta Lynn - Coal Miner's Daughter
TTITLE14=Conway Twitty - Hello Darlin'
TTITLE15=Jimmy Dickens - Raggedy Ann
TTITLE16=Loretta Lynn and Conway Twitty - After The Fire Is Gone
TTITLE17=Jerry Wallace - If You Leave Me Tonight I'll Cry
TTITLE18=Cal Smith - The Lord Knows I'm Drinking
TTITLE19=Marty Robbins - This Much Man
EXTD=
EXTT0=
EXTT1=
EXTT2=
EXTT3=
EXTT4=
EXTT5=
EXTT6=
EXTT7=
EXTT8=
EXTT9=
EXTT10=
EXTT11=
EXTT12=
EXTT13=
EXTT14=
EXTT15=
EXTT16=Twitty
EXTT17=Wallace
EXTT18=
EXTT19=
PLAYORDER=
